<svg width="110" height="30" viewBox="0 0 110 30" fill="none" xmlns="http://www.w3.org/2000/svg">
<path d="M11.8868 0.404297V3.03236C11.8868 5.08037 11.8645 5.66066 11.7857 5.66139C6.42758 5.71093 6.27843 5.71641 5.61986 5.89338C4.30472 6.24679 3.21645 6.89231 2.28918 7.86873C1.32553 8.88345 0.715341 10.1107 0.478665 11.5103C0.335362 12.3577 0.425027 14.374 0.637437 15.0808C1.0134 16.3319 1.56175 17.2679 2.41643 18.1171C3.45848 19.1525 4.68792 19.7944 6.13181 20.057C6.33947 20.0947 7.10982 20.1131 7.84365 20.0977C9.3578 20.0659 9.86534 19.9639 10.876 19.4887C12.376 18.7833 13.4645 17.688 14.1922 16.1519C14.8546 14.7535 14.8246 15.1521 14.8572 7.33839L14.8862 0.404297H13.3866H11.8868ZM96.7924 5.49146C93.4263 5.50025 90.5998 6.67615 88.2211 9.05747C86.4804 10.8 85.3215 13.0354 84.8984 15.4663C84.7548 16.2912 84.7439 16.8212 84.7439 22.9748V29.5956L90.9098 29.5937C97.0418 29.5916 98.0632 29.5571 99.248 29.3124C101.56 28.8349 103.726 27.6195 105.501 25.8035C106.863 24.411 108.015 22.3268 108.473 20.4264C109.807 14.8933 107.262 9.31131 102.244 6.76399C100.43 5.84314 98.9 5.48596 96.7924 5.49147V5.49146ZM76.5066 5.60423C74.7643 5.57332 73.1956 6.15875 71.7041 7.39066L71.3192 7.70859L71.1381 7.54708C71.0385 7.45821 70.866 7.30389 70.7548 7.20428C70.3808 6.86922 69.3825 6.29094 68.763 6.05039C67.1604 5.4281 64.9204 5.48091 63.3099 6.17882C61.4712 6.97564 60.0192 8.56088 59.3365 10.5172L59.07 11.2803L59.0297 15.1617C59.0075 17.2964 59.0007 19.1615 59.0146 19.306L59.0399 19.5687H60.8138H62.5877V15.9874C62.5877 12.0973 62.6087 11.8708 63.0478 11.0641C63.3531 10.5032 64.1008 9.8247 64.7463 9.52263C65.871 8.9963 67.298 9.15325 68.3362 9.9175C68.8681 10.3091 69.2176 10.743 69.5318 11.4017L69.744 11.8465L69.7843 15.6873L69.8248 19.5284L71.624 19.5501L73.4232 19.5719V15.2183V10.8647L73.7264 10.5066C74.1039 10.0606 74.2645 9.92025 74.6916 9.66358C75.575 9.13266 77.0101 9.07315 77.9629 9.52791C78.8555 9.9539 79.5065 10.6508 79.868 11.5669C79.9942 11.8867 80.0149 12.3551 80.0522 15.7279L80.0943 19.5284H81.8733H83.6523L83.6468 15.5661C83.6415 11.7439 83.6351 11.5809 83.4636 10.9569C83.1223 9.71473 82.5776 8.75719 81.6762 7.81451C80.4415 6.5234 79.099 5.86621 77.2642 5.65513C77.0079 5.62564 76.7555 5.60864 76.5066 5.60423ZM37.2306 5.60697C35.7103 5.61756 34.2046 6.09955 32.9543 7.05119C32.2123 7.6159 31.3931 8.57694 30.9848 9.3617C30.0386 11.1805 29.9129 13.4482 30.6522 15.3653C31.5186 17.6119 33.7126 19.3795 36.1051 19.7584C36.2385 19.7796 36.8389 19.787 37.4393 19.7749C38.7953 19.7476 39.5569 19.565 40.7952 18.9699C41.9935 18.394 43.5876 17.1785 43.493 16.9129C43.4319 16.7415 41.0456 14.7274 40.9628 14.7774C40.915 14.8062 40.631 14.9877 40.3316 15.1807C38.1745 16.5709 36.2698 16.5886 34.8468 15.2314C32.7149 13.1979 33.8628 9.68414 36.8104 9.22055C37.9331 9.04398 39.3565 9.5554 40.5407 10.5608L41.1756 11.1L42.2946 9.98308C43.2591 9.02043 43.4022 8.845 43.3313 8.71252C43.1711 8.41333 42.1004 7.35198 41.5944 6.99089C40.2857 6.05709 38.7508 5.59637 37.2306 5.60697ZM51.1031 5.61871C50.083 5.64348 49.0657 5.8665 48.2414 6.28336C46.9436 6.93973 45.8082 8.07831 45.2056 9.32744C44.6768 10.4235 44.5113 11.1771 44.528 12.4124C44.555 14.4035 45.2271 15.9192 46.6829 17.2719C47.5969 18.1212 48.5412 18.6286 49.6659 18.8749C50.3985 19.0353 52.1114 19.0332 52.8247 18.871C55.2175 18.3268 57.1603 16.4314 57.7873 14.0297C58.0143 13.1603 57.9975 11.3286 57.7548 10.4886C57.1959 8.55387 55.8235 6.97345 53.9821 6.14397C53.1462 5.76741 52.1232 5.59394 51.1031 5.61871V5.61871ZM23.3732 5.62948C22.387 5.61557 21.4192 5.81008 20.5585 6.22287C19.7291 6.62071 19.3006 6.91324 18.6339 7.5369C17.1771 8.89966 16.5184 10.3399 16.4377 12.3382C16.3667 14.096 16.7076 15.2973 17.656 16.6308C18.7001 18.0988 20.2654 19.1571 21.9332 19.5225C22.6268 19.6745 24.1161 19.6774 24.8254 19.5282C25.9818 19.2849 27.3169 18.5727 28.1825 17.7373C28.629 17.3063 29.4353 16.3587 29.4316 16.2694C29.4303 16.2383 29.0833 15.9764 28.6606 15.6873C28.2379 15.3982 27.6171 14.969 27.2812 14.7333L26.6704 14.3048L26.0235 14.9228C25.5889 15.3381 25.2003 15.6244 24.8381 15.796C24.335 16.0343 24.2402 16.0513 23.4098 16.0513C22.6601 16.0513 22.4588 16.0228 22.129 15.8706C21.9138 15.7712 21.75 15.657 21.7651 15.6166C21.7802 15.5763 22.5384 14.8411 23.4501 13.9827C25.2759 12.2637 27.6136 10.0532 28.5241 9.18452C28.8467 8.8768 29.1105 8.59535 29.1105 8.55922C29.1105 8.4254 28.0067 7.32917 27.5357 6.99519C26.2947 6.11524 24.8144 5.64981 23.3732 5.62948V5.62948ZM96.7767 8.85445L97.4083 8.87481C99.5148 8.94275 101.931 10.1525 103.383 11.8664C106.143 15.1228 106.137 19.9154 103.37 23.1653C102.278 24.4481 100.585 25.5006 98.9434 25.9167C98.503 26.0283 97.8389 26.1428 97.4676 26.1714L96.7924 26.2232V24.4862V22.7491L97.5436 22.6263C101.837 21.9246 103.46 16.7058 100.303 13.7527C100.014 13.4824 99.5886 13.1517 99.3568 13.018C98.7903 12.691 97.7638 12.3719 97.2783 12.3719C97.0609 12.3719 96.8646 12.3423 96.8421 12.3059C96.8197 12.2696 96.7958 11.4781 96.7891 10.5471L96.7767 8.85445ZM11.5633 8.97583L11.5614 11.3006C11.5603 12.5793 11.5226 13.785 11.4776 13.98C11.1611 15.3529 9.95278 16.5038 8.50674 16.8097C6.85096 17.16 5.09213 16.4626 4.24456 15.12C3.54244 14.0078 3.46559 12.3287 4.05995 11.0833C4.36775 10.4384 5.0504 9.72977 5.6647 9.41769C6.46676 9.01023 6.73032 8.97785 9.23854 8.97681L11.5633 8.97583ZM51.1937 8.99365C51.7191 8.98264 52.239 9.08711 52.6886 9.30845C53.3239 9.62119 54.0222 10.3334 54.3227 10.9747C54.5194 11.3943 54.5418 11.5332 54.5418 12.3333C54.5418 13.1726 54.5267 13.2552 54.2834 13.7484C53.814 14.6999 52.9438 15.3836 51.93 15.5971C49.6497 16.0773 47.5465 14.0703 47.938 11.7875C48.1126 10.7693 48.7939 9.81665 49.6657 9.37188C50.1374 9.13124 50.6683 9.00466 51.1937 8.99365ZM23.3416 9.14909C23.8816 9.15004 24.4205 9.25433 24.4205 9.37247C24.4205 9.4093 23.4584 10.354 22.2825 11.4717C21.1067 12.5895 20.1281 13.5041 20.1079 13.5041C20.038 13.5041 19.9676 13.2324 19.9205 12.7817C19.8252 11.8696 20.2226 10.8908 20.9953 10.1346C21.6101 9.5329 22.329 9.20026 23.1116 9.15536C23.1872 9.15102 23.2645 9.14896 23.3416 9.14909V9.14909ZM96.7924 13.9669L97.2775 14.0107C98.1711 14.0917 99.1577 14.6919 99.7049 15.4872C100.119 16.0897 100.29 16.7553 100.254 17.628C100.229 18.2451 100.18 18.4882 100.007 18.8637C99.6084 19.7269 98.9131 20.381 98.0258 20.7271C97.8368 20.8008 97.4821 20.8847 97.2374 20.9135L96.7924 20.9658V17.4663V13.9669Z" fill="#85898C"/>
<path d="M53.1724 29.5693C53.1118 29.5625 53.0564 29.5512 53.0494 29.5442C53.0423 29.5372 53.0531 29.4774 53.0734 29.411L53.1103 29.2906L53.2735 29.2911C53.4147 29.2916 53.4412 29.2878 53.4691 29.2626C53.5461 29.1932 53.4559 29.1194 53.294 29.1193L53.2003 29.1193V28.963C53.2003 28.8505 53.195 28.8053 53.1815 28.8018C53.1712 28.7991 53.1065 28.7672 53.0377 28.7308C52.873 28.6438 52.7683 28.5464 52.7004 28.4172C52.6142 28.2531 52.601 28.1692 52.601 27.7849C52.601 27.4006 52.6142 27.3166 52.7004 27.1526C52.8303 26.9054 53.0819 26.7756 53.4327 26.7747C53.6283 26.7742 53.7392 26.7959 53.8859 26.8633C53.9821 26.9074 54.1598 27.0483 54.1598 27.0803C54.1598 27.0862 54.0991 27.1466 54.0248 27.2145L53.8897 27.3379L53.8403 27.2946C53.7115 27.1815 53.5667 27.1318 53.4034 27.1446C53.3453 27.1492 53.272 27.1638 53.2405 27.1771C53.1488 27.216 53.0556 27.3124 53.0177 27.4077C52.9867 27.4855 52.9839 27.5166 52.9839 27.7849C52.9839 28.1346 53.0011 28.1995 53.1242 28.3147C53.3036 28.4825 53.6414 28.4652 53.8234 28.2788L53.8793 28.2215L54.0195 28.3511C54.0967 28.4223 54.1598 28.4855 54.1598 28.4914C54.1598 28.5169 54.0769 28.5974 53.9924 28.6538C53.8993 28.716 53.7182 28.7797 53.5855 28.7971C53.5157 28.8062 53.5135 28.808 53.518 28.8526C53.5221 28.8937 53.5302 28.9007 53.5908 28.916C53.7515 28.9566 53.8324 29.058 53.8339 29.221C53.8361 29.4517 53.7078 29.5569 53.4027 29.5746C53.3367 29.5785 53.2331 29.576 53.1724 29.5693V29.5693ZM71.4321 27.3952V25.6859H71.627H71.8219V27.3952V29.1044H71.627H71.4321V27.3952ZM35.943 28.7179C35.6848 28.565 35.5309 28.3684 35.4532 28.0923C35.4153 27.9575 35.4054 26.9807 35.4399 26.7806C35.5032 26.4136 35.7299 26.1315 36.0437 26.0291C36.1825 25.9838 36.4811 25.9723 36.6192 26.007C36.9478 26.0895 37.2009 26.3378 37.3059 26.6808C37.3232 26.7373 37.3374 26.7863 37.3374 26.7895C37.3374 26.7928 37.2475 26.7954 37.1377 26.7954H36.9381L36.9031 26.7111C36.857 26.5997 36.7237 26.4634 36.6078 26.4091C36.5317 26.3735 36.5017 26.3681 36.3778 26.3681C36.2615 26.3681 36.2219 26.3744 36.1616 26.4021C36.0027 26.4754 35.8919 26.6107 35.8462 26.7873C35.8115 26.9212 35.8124 27.8784 35.8472 27.9959C35.8976 28.166 35.9976 28.2987 36.1233 28.3624C36.4272 28.5164 36.8051 28.3615 36.9189 28.0361L36.9386 27.9799H37.139C37.3228 27.9799 37.3388 27.9821 37.3318 28.0061C37.3276 28.0206 37.3164 28.0627 37.3068 28.0998C37.2449 28.3397 37.0377 28.5921 36.8118 28.7028C36.6606 28.7769 36.5125 28.8048 36.2773 28.8033L36.0855 28.8022L35.943 28.7179ZM38.4283 28.7901C38.1082 28.7315 37.9108 28.5498 37.8318 28.241C37.8065 28.1419 37.8022 28.0747 37.8022 27.7782C37.8022 27.3957 37.8126 27.325 37.894 27.1578C37.9808 26.9795 38.1554 26.8465 38.3719 26.7939C38.492 26.7647 38.7636 26.7688 38.8742 26.8015C39.1578 26.8853 39.3368 27.0806 39.399 27.374C39.4293 27.5174 39.4293 28.0525 39.399 28.1973C39.3396 28.4803 39.1653 28.6819 38.9118 28.761C38.8015 28.7954 38.5428 28.811 38.4284 28.7901L38.4283 28.7901ZM38.8142 28.3888C38.8937 28.3473 38.9476 28.2885 38.9896 28.1973C39.0214 28.1283 39.0245 28.0982 39.029 27.8188C39.0345 27.4748 39.0212 27.3979 38.9377 27.2883C38.8405 27.1609 38.6501 27.1098 38.4683 27.1623C38.3488 27.1968 38.2498 27.2964 38.2114 27.4207C38.1724 27.5467 38.1724 28.0233 38.2113 28.1492C38.2444 28.2562 38.3227 28.3466 38.4244 28.3953C38.4894 28.4264 38.5163 28.4305 38.6268 28.4256C38.7186 28.4216 38.7711 28.4113 38.8142 28.3888H38.8142ZM43.8295 28.7851C43.6469 28.7432 43.5156 28.6433 43.4291 28.4804C43.3321 28.2976 43.3306 28.2841 43.3237 27.5039L43.3174 26.7954H43.5135H43.7095V27.4156C43.7095 27.773 43.716 28.07 43.7248 28.1165C43.7457 28.227 43.8079 28.3222 43.8942 28.3756C43.953 28.4119 43.9863 28.4209 44.0831 28.4265C44.229 28.435 44.3342 28.4037 44.4078 28.3302C44.5133 28.2247 44.5109 28.2433 44.516 27.4814L44.5205 26.7954H44.7147H44.909V27.785V28.7745H44.714H44.5191V28.6516V28.5287L44.4435 28.6135C44.3339 28.7365 44.22 28.7892 44.0456 28.7976C43.9672 28.8013 43.8778 28.7962 43.8294 28.7851H43.8295ZM49.0321 28.7317C48.8611 28.6354 48.7638 28.5441 48.6973 28.4175C48.611 28.2532 48.5978 28.1693 48.5978 27.785C48.5978 27.4007 48.611 27.3167 48.6972 27.1527C48.8271 26.9055 49.0786 26.7757 49.4295 26.7748C49.6251 26.7743 49.736 26.796 49.8827 26.8634C49.9789 26.9075 50.1566 27.0484 50.1566 27.0804C50.1566 27.0863 50.0955 27.1469 50.0209 27.2152L49.8851 27.3392L49.8447 27.3016C49.7218 27.1872 49.5649 27.1318 49.4002 27.1447C49.3421 27.1492 49.2688 27.1639 49.2373 27.1772C49.1456 27.2161 49.0524 27.3125 49.0145 27.4078C48.9834 27.4856 48.9807 27.5167 48.9807 27.785C48.9807 28.1347 48.9979 28.1996 49.121 28.3148C49.3004 28.4826 49.6382 28.4653 49.8202 28.2789L49.8761 28.2216L50.0163 28.3512C50.0935 28.4224 50.1566 28.4856 50.1566 28.4915C50.1566 28.4975 50.1395 28.5228 50.1185 28.5477C50.0563 28.6217 49.9074 28.7114 49.7767 28.7538C49.6687 28.7888 49.6253 28.794 49.407 28.7985L49.1596 28.8036L49.0321 28.7317ZM50.9738 28.7836C50.6486 28.721 50.4865 28.5282 50.4865 28.2041C50.4865 27.9078 50.6024 27.727 50.8432 27.6477C50.9337 27.618 50.9821 27.614 51.3244 27.6085L51.7051 27.6024L51.6962 27.4966C51.6848 27.3605 51.6293 27.2437 51.5482 27.185C51.4147 27.0882 51.1767 27.0916 50.9704 27.1932L50.862 27.2465L50.7267 27.1555C50.6523 27.1055 50.5914 27.0585 50.5914 27.0512C50.5914 27.0243 50.7343 26.9131 50.8228 26.8711C50.9733 26.7995 51.0888 26.7758 51.2886 26.7754C51.4179 26.7751 51.4936 26.7825 51.5578 26.8015C51.8185 26.8789 51.9764 27.0324 52.0378 27.2682C52.0569 27.3415 52.0608 27.4769 52.0608 28.0655V28.7745H51.8808H51.7009V28.7071C51.7009 28.67 51.6977 28.6396 51.6936 28.6396C51.6895 28.6396 51.6555 28.663 51.618 28.6917C51.5804 28.7203 51.5146 28.7546 51.4717 28.7678C51.3653 28.8006 51.105 28.8088 50.9738 28.7836L50.9738 28.7836ZM51.4456 28.4737C51.5707 28.4534 51.6376 28.4209 51.6727 28.3634C51.6965 28.3244 51.7008 28.2865 51.7009 28.1176V27.9179L51.3598 27.9226C51.0358 27.9271 51.016 27.9291 50.9641 27.9614C50.934 27.9801 50.8972 28.0205 50.8823 28.0513C50.8467 28.1249 50.8468 28.255 50.8823 28.329C50.9458 28.4602 51.1713 28.5181 51.4452 28.4737L51.4456 28.4737ZM54.977 28.7836C54.6519 28.721 54.4897 28.5282 54.4897 28.2041C54.4897 27.9078 54.6056 27.727 54.8464 27.6477C54.9369 27.618 54.9853 27.614 55.3276 27.6085L55.7083 27.6024L55.6994 27.4966C55.688 27.3605 55.6325 27.2437 55.5515 27.185C55.4179 27.0882 55.1799 27.0916 54.9736 27.1932L54.8652 27.2465L54.7299 27.1555C54.6555 27.1055 54.5946 27.0585 54.5946 27.0512C54.5946 27.0243 54.7375 26.9131 54.826 26.8711C54.9765 26.7995 55.092 26.7758 55.2918 26.7754C55.4211 26.7751 55.4969 26.7825 55.5611 26.8015C55.8217 26.8789 55.9796 27.0324 56.041 27.2682C56.0601 27.3415 56.064 27.4769 56.064 28.0655V28.7745H55.8841H55.7041V28.7071C55.7041 28.67 55.7008 28.6396 55.6968 28.6396C55.6927 28.6396 55.6587 28.663 55.6212 28.6917C55.5837 28.7203 55.5178 28.7546 55.4749 28.7678C55.3685 28.8006 55.1082 28.8088 54.977 28.7836V28.7836ZM55.4488 28.4737C55.5739 28.4534 55.6408 28.4209 55.6759 28.3634C55.6997 28.3244 55.704 28.2865 55.7041 28.1176V27.9179L55.363 27.9226C55.039 27.9271 55.0192 27.9291 54.9673 27.9614C54.9372 27.9801 54.9004 28.0205 54.8855 28.0513C54.8499 28.1249 54.8501 28.255 54.8855 28.329C54.9491 28.4602 55.1745 28.5181 55.4484 28.4737L55.4488 28.4737ZM57.2299 28.7901C56.9098 28.7315 56.7124 28.5498 56.6334 28.241C56.6081 28.1419 56.6037 28.0747 56.6037 27.7782C56.6037 27.3957 56.6142 27.325 56.6956 27.1578C56.7823 26.9795 56.957 26.8465 57.1735 26.7939C57.2935 26.7647 57.5652 26.7688 57.6758 26.8015C57.9594 26.8853 58.1384 27.0806 58.2005 27.374C58.2309 27.5174 58.2309 28.0525 58.2005 28.1973C58.1411 28.4803 57.9669 28.6819 57.7133 28.761C57.6031 28.7954 57.3444 28.811 57.23 28.7901L57.2299 28.7901ZM57.6158 28.3888C57.6953 28.3473 57.7491 28.2885 57.7912 28.1973C57.823 28.1283 57.8261 28.0982 57.8306 27.8188C57.8361 27.4748 57.8228 27.3979 57.7392 27.2883C57.6421 27.1609 57.4516 27.1098 57.2699 27.1623C57.1504 27.1968 57.0514 27.2964 57.0129 27.4207C56.974 27.5467 56.974 28.0233 57.0129 28.1492C57.046 28.2562 57.1243 28.3466 57.226 28.3953C57.291 28.4264 57.3179 28.4305 57.4284 28.4256C57.5201 28.4216 57.5726 28.4113 57.6158 28.3888H57.6158ZM59.9383 28.7674C59.855 28.7481 59.7356 28.711 59.6729 28.6849C59.5317 28.6261 59.3243 28.4891 59.3269 28.4563C59.3279 28.4432 59.3782 28.3716 59.4387 28.2973L59.5486 28.1622L59.6018 28.2042C59.8149 28.3729 60.1289 28.457 60.4386 28.4284C60.7658 28.3983 60.9368 28.2534 60.9368 28.0063C60.9368 27.8918 60.9081 27.819 60.837 27.7529C60.746 27.6684 60.6437 27.6343 60.2546 27.5591C59.8434 27.4797 59.6856 27.4075 59.5652 27.244C59.4748 27.1212 59.4459 27.0097 59.4471 26.7879C59.4481 26.5834 59.4757 26.473 59.5576 26.3454C59.6617 26.1832 59.8724 26.0543 60.1105 26.0071C60.3073 25.9682 60.6476 25.983 60.8169 26.0379C61.0218 26.1044 61.2753 26.2416 61.2612 26.2784C61.2512 26.3044 61.0712 26.5541 61.0554 26.5639C61.048 26.5684 61.0112 26.5509 60.9735 26.525C60.6993 26.3364 60.3356 26.2918 60.0683 26.4141C59.9617 26.4628 59.9074 26.5141 59.863 26.608C59.8017 26.7378 59.8208 26.9108 59.9067 27.0028C59.9898 27.0918 60.1192 27.1397 60.4626 27.2087C60.9185 27.3004 61.1239 27.406 61.2437 27.6103C61.3513 27.794 61.354 28.1493 61.2494 28.3665C61.209 28.4504 61.0898 28.5798 60.9999 28.6376C60.7588 28.7923 60.2922 28.8493 59.9382 28.7674H59.9383ZM62.4176 28.7901C62.0975 28.7315 61.9001 28.5498 61.8211 28.241C61.7957 28.1419 61.7914 28.0747 61.7914 27.7782C61.7914 27.3957 61.8019 27.325 61.8832 27.1578C61.97 26.9795 62.1446 26.8465 62.3612 26.7939C62.4812 26.7647 62.7529 26.7688 62.8634 26.8015C63.147 26.8853 63.3261 27.0806 63.3882 27.374C63.4186 27.5174 63.4185 28.0525 63.3882 28.1973C63.3288 28.4803 63.1546 28.6819 62.901 28.761C62.7908 28.7954 62.5321 28.811 62.4177 28.7901L62.4176 28.7901ZM62.8035 28.3888C62.883 28.3473 62.9368 28.2885 62.9788 28.1973C63.0106 28.1283 63.0138 28.0982 63.0182 27.8188C63.0238 27.4748 63.0105 27.3979 62.9269 27.2883C62.8297 27.1609 62.6393 27.1098 62.4575 27.1623C62.3381 27.1968 62.239 27.2964 62.2006 27.4207C62.1617 27.5467 62.1617 28.0233 62.2006 28.1492C62.2337 28.2562 62.312 28.3466 62.4137 28.3953C62.4787 28.4264 62.5055 28.4305 62.6161 28.4256C62.7078 28.4216 62.7603 28.4113 62.8035 28.3888H62.8035ZM64.3553 28.7317C64.1842 28.6354 64.087 28.5441 64.0204 28.4175C63.9341 28.2532 63.9209 28.1693 63.9209 27.785C63.9209 27.4007 63.9341 27.3167 64.0203 27.1527C64.1502 26.9055 64.4018 26.7757 64.7526 26.7748C64.9482 26.7743 65.0591 26.796 65.2059 26.8634C65.302 26.9075 65.4798 27.0484 65.4798 27.0804C65.4798 27.0863 65.4187 27.1469 65.344 27.2152L65.2083 27.3392L65.1678 27.3016C65.045 27.1872 64.888 27.1318 64.7234 27.1447C64.6652 27.1492 64.5919 27.1639 64.5604 27.1772C64.4687 27.2161 64.3756 27.3125 64.3376 27.4078C64.3066 27.4856 64.3038 27.5167 64.3038 27.785C64.3038 28.1347 64.321 28.1996 64.4441 28.3148C64.6235 28.4826 64.9613 28.4653 65.1433 28.2789L65.1992 28.2216L65.3395 28.3512C65.4166 28.4224 65.4798 28.4856 65.4798 28.4915C65.4798 28.4975 65.4626 28.5228 65.4416 28.5477C65.3794 28.6217 65.2305 28.7114 65.0998 28.7538C64.9918 28.7888 64.9485 28.794 64.7301 28.7985L64.4827 28.8036L64.3553 28.7317ZM67.2715 28.7836C66.9463 28.721 66.7842 28.5282 66.7842 28.2041C66.7842 27.9078 66.9001 27.727 67.1409 27.6477C67.2314 27.618 67.2798 27.614 67.6221 27.6085L68.0028 27.6024L67.9939 27.4966C67.9825 27.3605 67.927 27.2437 67.846 27.185C67.7124 27.0882 67.4744 27.0916 67.2681 27.1932L67.1597 27.2465L67.0244 27.1555C66.95 27.1055 66.8891 27.0585 66.8891 27.0512C66.8891 27.0243 67.032 26.9131 67.1205 26.8711C67.271 26.7995 67.3865 26.7758 67.5863 26.7754C67.7156 26.7751 67.7913 26.7825 67.8556 26.8015C68.1162 26.8789 68.2741 27.0324 68.3355 27.2682C68.3546 27.3415 68.3585 27.4769 68.3585 28.0655V28.7745H68.1785H67.9986V28.7071C67.9986 28.67 67.9954 28.6396 67.9913 28.6396C67.9872 28.6396 67.9532 28.663 67.9157 28.6917C67.8781 28.7203 67.8123 28.7546 67.7693 28.7678C67.663 28.8006 67.4026 28.8088 67.2715 28.7836L67.2715 28.7836ZM67.7433 28.4737C67.8684 28.4534 67.9353 28.4209 67.9704 28.3634C67.9942 28.3244 67.9985 28.2865 67.9986 28.1176V27.9179L67.6575 27.9226C67.3335 27.9271 67.3137 27.9291 67.2618 27.9614C67.2317 27.9801 67.1949 28.0205 67.18 28.0513C67.1444 28.1249 67.1445 28.255 67.18 28.329C67.2436 28.4602 67.469 28.5181 67.7429 28.4737L67.7433 28.4737ZM74.5282 28.7824C74.1596 28.7143 73.9285 28.4932 73.8266 28.1113C73.7941 27.9895 73.7935 27.9706 73.7935 26.9978V26.0083L73.9847 26.0041L74.1759 25.9999V26.9187C74.1759 27.489 74.182 27.8744 74.1918 27.9349C74.2246 28.1381 74.3374 28.2978 74.5017 28.3736C74.563 28.4019 74.5995 28.4066 74.7605 28.4069C74.9322 28.4072 74.955 28.4039 75.0326 28.3675C75.1301 28.3218 75.2255 28.2327 75.2697 28.1459C75.3438 28.0006 75.3452 27.9784 75.3452 26.9572V26.0008H75.5408H75.7364L75.7314 27.0166C75.7259 28.1539 75.7305 28.0976 75.6135 28.3374C75.531 28.5058 75.4193 28.6174 75.2523 28.6981C75.049 28.7964 74.7756 28.8282 74.5281 28.7824L74.5282 28.7824ZM69.2903 28.7734C69.145 28.7448 69.0322 28.6406 68.9778 28.4848C68.9526 28.4125 68.9507 28.3257 68.9507 27.2077V26.0083L69.1416 26.0041L69.3325 25.9999L69.3365 27.1686L69.3405 28.3373L69.3768 28.376C69.4095 28.4108 69.4244 28.4147 69.523 28.4147H69.6329V28.6021V28.7895L69.4942 28.7879C69.4179 28.787 69.3261 28.7805 69.2902 28.7734L69.2903 28.7734ZM39.9762 27.785V26.7954H40.1711H40.366V26.9328V27.0702L40.4198 27.0013C40.4812 26.9224 40.5998 26.8362 40.6903 26.8046C40.9749 26.7054 41.3101 26.8246 41.4391 27.0709L41.4809 27.1507L41.5392 27.0633C41.6866 26.8425 41.9171 26.7385 42.1709 26.778C42.3879 26.8118 42.5464 26.9273 42.6371 27.1178C42.7217 27.2954 42.7235 27.3139 42.7307 28.0736L42.7373 28.7745H42.5421H42.3469L42.3423 28.1111C42.3377 27.4549 42.3373 27.4468 42.3031 27.3727C42.2358 27.2265 42.1319 27.1554 41.9686 27.1436C41.8316 27.1338 41.7359 27.1672 41.6576 27.2521C41.5532 27.3655 41.5505 27.387 41.5505 28.125V28.7745H41.3562H41.1619L41.1575 28.1036C41.1533 27.4397 41.1528 27.4318 41.1187 27.3579C41.0458 27.1997 40.9583 27.148 40.7634 27.1479C40.6605 27.1479 40.616 27.1545 40.576 27.1758C40.5026 27.2148 40.4438 27.2725 40.4059 27.3427C40.3743 27.4012 40.3735 27.4187 40.3691 28.0886L40.3647 28.7745H40.1705H39.9762L39.9762 27.785ZM45.4937 27.785V26.7954H45.6886H45.8836V26.9328V27.0702L45.9373 27.0013C46.0748 26.8247 46.2974 26.7424 46.5358 26.7797C46.7496 26.8133 46.9067 26.9285 46.9946 27.1164C47.0771 27.2926 47.0825 27.3525 47.0828 28.0961V28.7745H46.8878H46.6929V28.125C46.6929 27.3779 46.6909 27.3624 46.5806 27.2521C46.4975 27.169 46.3872 27.1334 46.2441 27.1437C46.0941 27.1544 45.9899 27.2191 45.9231 27.3427C45.8915 27.4012 45.8907 27.4187 45.8863 28.0886L45.8819 28.7745H45.6877H45.4935L45.4937 27.785ZM47.6678 27.785V26.7954H47.8627H48.0576V27.785V28.7745H47.8627H47.6678V27.785ZM65.8996 27.785V26.7954H66.0945H66.2894V27.785V28.7745H66.0945H65.8996V27.785ZM76.3799 27.3877V26.0008H77.2495H78.1191V26.1882V26.3756H77.4444H76.7697V26.8104V27.2452H77.3395H77.9092V27.4251V27.6051H77.3395H76.7697V28.1898V28.7745H76.5748H76.3799V27.3877ZM78.5539 27.3877V26.0008L79.1349 26.0013C79.5574 26.0017 79.7472 26.0074 79.8305 26.0222C80.1523 26.0796 80.3791 26.3063 80.4365 26.6277C80.4624 26.7729 80.4623 26.8334 80.4356 26.9816C80.3928 27.2218 80.2493 27.4176 80.0431 27.5172L79.9357 27.569L80.2436 28.153C80.4129 28.4742 80.5547 28.7455 80.5587 28.7558C80.5643 28.7703 80.5138 28.7745 80.3357 28.7744L80.1054 28.7743L79.813 28.1934L79.5207 27.6126L79.2321 27.6085L78.9434 27.6044V28.1895V28.7746H78.7485H78.5536V27.3877L78.5539 27.3877ZM79.7845 27.2131C79.8653 27.1889 79.9426 27.12 79.99 27.0301C80.0259 26.9619 80.0306 26.9363 80.0307 26.8104C80.0307 26.5958 79.9709 26.482 79.8208 26.4113C79.7479 26.3769 79.7348 26.3759 79.3448 26.3758L78.9437 26.3756V26.8029V27.2302H79.3356C79.5858 27.2302 79.748 27.224 79.7845 27.2131V27.2131ZM81.0878 27.3872V25.9998L81.2639 26.0041L81.44 26.0083L82.0773 27.0158C82.4278 27.57 82.723 28.0318 82.7333 28.0421C82.7483 28.0571 82.752 27.8549 82.752 27.0308V26.0008H82.9394H83.1269V27.3877V28.7746H82.9502H82.7735L82.1297 27.7688C81.7756 27.2157 81.4806 26.7598 81.4743 26.7559C81.4678 26.7519 81.4626 27.2045 81.4626 27.7616V28.7746H81.2752H81.0878V27.3872ZM55.4706 26.3792C55.4288 26.3642 55.3512 26.3212 55.2982 26.2835C55.1209 26.1573 55.0645 26.1413 54.994 26.1968C54.96 26.2235 54.9545 26.2392 54.9545 26.3092V26.3906H54.8028H54.6511L54.6572 26.2444C54.6625 26.1174 54.6691 26.0875 54.7077 26.0162C54.7648 25.9108 54.8512 25.8549 54.977 25.8418C55.1043 25.8286 55.1724 25.8521 55.3404 25.9671C55.4583 26.0478 55.498 26.0673 55.5446 26.0674C55.6183 26.0676 55.6549 26.0253 55.6683 25.9246L55.6781 25.8508H55.828H55.9779L55.9673 25.9722C55.9431 26.2506 55.8433 26.3762 55.6292 26.3979C55.5701 26.4039 55.5252 26.3986 55.4707 26.3792H55.4706ZM47.6711 26.1994L47.6752 26.0083L47.8664 26.0041L48.0576 25.9999V26.1952V26.3906H47.8622H47.6668L47.6711 26.1994ZM65.9029 26.1994L65.9071 26.0083L66.0982 26.0041L66.2894 25.9999V26.1952V26.3906H66.094H65.8987L65.9029 26.1994ZM58.7428 24.8963C58.7373 24.8908 58.7328 24.2633 58.7328 23.5019V22.1175H58.9277H59.1226V22.2462V22.3748L59.1968 22.2937C59.3398 22.1373 59.5451 22.0663 59.755 22.1008C60.0237 22.1451 60.1892 22.2997 60.2724 22.5843C60.2899 22.644 60.2978 22.7599 60.303 23.0337C60.3125 23.5307 60.2875 23.6814 60.165 23.8642C59.9487 24.187 59.4016 24.2177 59.1741 23.9199L59.1226 23.8524V24.3794V24.9063H58.9377C58.836 24.9063 58.7483 24.9018 58.7428 24.8963L58.7428 24.8963ZM59.6662 23.7481C59.7475 23.7248 59.8326 23.6452 59.8739 23.5538C59.9075 23.4795 59.9101 23.4541 59.9146 23.1558C59.9199 22.7999 59.9083 22.7114 59.8428 22.608C59.7774 22.5049 59.6866 22.4583 59.5356 22.4503C59.344 22.4403 59.2259 22.5042 59.1565 22.6553C59.1197 22.7357 59.1097 23.3848 59.1435 23.5012C59.1748 23.6089 59.2236 23.6773 59.2985 23.7187C59.4094 23.7799 59.5234 23.789 59.6662 23.7481V23.7481ZM57.0527 24.0556C56.8715 23.9526 56.8244 23.913 56.7477 23.7993C56.6277 23.6213 56.6132 23.556 56.6068 23.1639C56.6019 22.8606 56.6046 22.8104 56.6315 22.704C56.6724 22.5423 56.7309 22.4278 56.8243 22.3268C57.1067 22.0212 57.6821 22.0112 57.9527 22.3073C58.1146 22.4845 58.1898 22.7095 58.2037 23.0583L58.2121 23.272H57.5859H56.9597L56.9695 23.3357C56.9979 23.5195 57.0836 23.6461 57.2216 23.7084C57.289 23.7388 57.3245 23.7442 57.4583 23.7442C57.6332 23.7442 57.7177 23.7174 57.8417 23.6228L57.9043 23.5749L58.0262 23.6974C58.0932 23.7648 58.1477 23.8265 58.1474 23.8346C58.1465 23.8548 58.0225 23.9481 57.9231 24.0033C57.7698 24.0884 57.6545 24.1149 57.4058 24.122L57.1809 24.1285L57.0527 24.0556ZM57.8291 22.8784C57.8105 22.7012 57.7079 22.5307 57.5866 22.4757C57.5108 22.4412 57.3545 22.4386 57.2615 22.4703C57.1752 22.4997 57.0936 22.5674 57.0456 22.6492C57.0067 22.7155 56.9559 22.9175 56.9716 22.943C56.9768 22.9513 57.1561 22.9571 57.4089 22.9571H57.8374L57.8291 22.8784ZM61.2442 24.1057C60.919 24.0431 60.7569 23.8503 60.7569 23.5262C60.7569 23.2299 60.8728 23.0491 61.1136 22.9698C61.2041 22.9401 61.2525 22.9361 61.5948 22.9306L61.9755 22.9245L61.9666 22.8187C61.9552 22.6826 61.8997 22.5658 61.8186 22.5071C61.6851 22.4104 61.4471 22.4137 61.2408 22.5153L61.1324 22.5686L60.9971 22.4776C60.9227 22.4276 60.8618 22.3806 60.8618 22.3733C60.8618 22.3465 61.0047 22.2352 61.0932 22.1932C61.2437 22.1217 61.3592 22.0979 61.559 22.0975C61.6883 22.0972 61.764 22.1046 61.8282 22.1236C62.0889 22.201 62.2467 22.3545 62.3082 22.5903C62.3272 22.6636 62.3312 22.799 62.3312 23.3876V24.0966H62.1512H61.9713V24.0292C61.9713 23.9921 61.9679 23.9617 61.964 23.9617C61.9599 23.9617 61.9259 23.9851 61.8884 24.0138C61.8508 24.0424 61.785 24.0767 61.742 24.0899C61.6357 24.1227 61.3753 24.1309 61.2442 24.1057L61.2442 24.1057ZM61.716 23.7958C61.8411 23.7755 61.908 23.743 61.9431 23.6855C61.9669 23.6465 61.9712 23.6086 61.9713 23.4397V23.24L61.6302 23.2448C61.3062 23.2493 61.2864 23.2512 61.2345 23.2835C61.2044 23.3022 61.1676 23.3427 61.1527 23.3734C61.1171 23.447 61.1172 23.5772 61.1527 23.6511C61.2162 23.7823 61.4417 23.8402 61.7156 23.7958L61.716 23.7958ZM66.2519 24.1057C65.9268 24.0431 65.7646 23.8503 65.7646 23.5262C65.7646 23.2299 65.8806 23.0491 66.1214 22.9698C66.2118 22.9401 66.2603 22.9361 66.6026 22.9306L66.9832 22.9245L66.9743 22.8187C66.9629 22.6826 66.9075 22.5658 66.8264 22.5071C66.6929 22.4104 66.4549 22.4137 66.2485 22.5153L66.1402 22.5686L66.0049 22.4776C65.9305 22.4276 65.8696 22.3806 65.8696 22.3733C65.8696 22.3465 66.0124 22.2352 66.1009 22.1932C66.2515 22.1217 66.367 22.0979 66.5668 22.0975C66.6961 22.0972 66.7718 22.1046 66.836 22.1236C67.0967 22.201 67.2545 22.3545 67.3159 22.5903C67.335 22.6636 67.3389 22.799 67.3389 23.3876V24.0966H67.159H66.9791V24.0292C66.9791 23.9921 66.9758 23.9617 66.9717 23.9617C66.9677 23.9617 66.9337 23.9851 66.8961 24.0138C66.8586 24.0424 66.7928 24.0767 66.7498 24.0899C66.6435 24.1227 66.3831 24.1309 66.2519 24.1057L66.2519 24.1057ZM66.7238 23.7958C66.8489 23.7755 66.9158 23.743 66.9508 23.6855C66.9746 23.6465 66.979 23.6086 66.979 23.4397V23.24L66.6379 23.2448C66.3139 23.2493 66.2941 23.2512 66.2422 23.2835C66.2122 23.3022 66.1754 23.3427 66.1605 23.3734C66.1248 23.447 66.125 23.5772 66.1605 23.6511C66.224 23.7823 66.4495 23.8402 66.7233 23.7958L66.7238 23.7958ZM71.6711 24.0556C71.49 23.9526 71.4429 23.913 71.3662 23.7993C71.2461 23.6213 71.2316 23.556 71.2253 23.1639C71.2204 22.8606 71.2231 22.8104 71.25 22.704C71.2908 22.5423 71.3494 22.4278 71.4427 22.3268C71.7252 22.0212 72.3005 22.0112 72.5711 22.3073C72.7331 22.4845 72.8083 22.7095 72.8221 23.0583L72.8306 23.272H72.2044H71.5782L71.588 23.3357C71.6163 23.5195 71.702 23.6461 71.84 23.7084C71.9074 23.7388 71.943 23.7442 72.0768 23.7442C72.2517 23.7442 72.3361 23.7174 72.4601 23.6228L72.5228 23.5749L72.6446 23.6974C72.7116 23.7648 72.7662 23.8265 72.7658 23.8346C72.7649 23.8548 72.641 23.9481 72.5416 24.0033C72.3882 24.0884 72.2729 24.1149 72.0243 24.122L71.7994 24.1285L71.6711 24.0556ZM72.4476 22.8784C72.429 22.7012 72.3264 22.5307 72.2051 22.4757C72.1292 22.4412 71.9729 22.4386 71.88 22.4703C71.7937 22.4997 71.712 22.5674 71.664 22.6492C71.6252 22.7155 71.5743 22.9175 71.59 22.943C71.5952 22.9513 71.7745 22.9571 72.0273 22.9571H72.4558L72.4476 22.8784ZM77.3809 24.1122C77.0608 24.0536 76.8634 23.8719 76.7844 23.5631C76.759 23.464 76.7547 23.3968 76.7547 23.1003C76.7547 22.7177 76.7652 22.6471 76.8465 22.4799C76.9333 22.3016 77.1079 22.1686 77.3245 22.116C77.4445 22.0868 77.7162 22.0909 77.8267 22.1236C78.1103 22.2074 78.2894 22.4027 78.3515 22.6961C78.3819 22.8394 78.3818 23.3746 78.3515 23.5194C78.2921 23.8024 78.1178 24.004 77.8643 24.0831C77.7541 24.1175 77.4953 24.1331 77.381 24.1122L77.3809 24.1122ZM77.7668 23.7109C77.8463 23.6694 77.9001 23.6106 77.9421 23.5194C77.9739 23.4504 77.9771 23.4203 77.9815 23.1409C77.9871 22.7969 77.9738 22.72 77.8902 22.6104C77.793 22.483 77.6026 22.4319 77.4208 22.4844C77.3014 22.5189 77.2023 22.6185 77.1639 22.7428C77.125 22.8688 77.125 23.3454 77.1639 23.4713C77.197 23.5783 77.2753 23.6687 77.377 23.7174C77.442 23.7485 77.4688 23.7526 77.5794 23.7477C77.6711 23.7437 77.7236 23.7334 77.7668 23.7109H77.7668ZM80.0083 24.106C79.8389 24.0568 79.712 23.9525 79.6341 23.7982C79.5538 23.6391 79.5439 23.5631 79.5439 23.1071C79.5439 22.6533 79.5541 22.5741 79.6319 22.421C79.7445 22.1997 79.936 22.0875 80.2012 22.0875C80.3703 22.0875 80.5256 22.1558 80.6439 22.2823L80.7129 22.3561V21.8395V21.3229H80.9079H81.1028V22.7098V24.0966H80.9079H80.7129V23.983V23.8693L80.6371 23.9523C80.5913 24.0024 80.5273 24.0519 80.4759 24.0771C80.4012 24.1137 80.3711 24.1193 80.2332 24.1222C80.1381 24.1242 80.049 24.1178 80.0083 24.106ZM80.5004 23.7432C80.5705 23.7139 80.6319 23.6557 80.6731 23.5794C80.704 23.5221 80.7054 23.501 80.7054 23.1071C80.7054 22.7115 80.7041 22.6923 80.6726 22.6334C80.6301 22.554 80.5487 22.4831 80.4772 22.4633C80.3932 22.4399 80.2257 22.4438 80.1615 22.4706C80.0918 22.4997 80.0143 22.5729 79.9773 22.6448C79.9305 22.7355 79.9142 22.8967 79.9221 23.1896C79.9299 23.4793 79.944 23.5465 80.0169 23.6422C80.1103 23.7646 80.3362 23.8118 80.5004 23.7432V23.7432ZM82.0915 24.0556C81.9103 23.9526 81.8632 23.913 81.7865 23.7993C81.6664 23.6213 81.6519 23.556 81.6456 23.1639C81.6407 22.8606 81.6434 22.8104 81.6703 22.704C81.7112 22.5423 81.7697 22.4278 81.863 22.3268C82.1455 22.0212 82.7209 22.0112 82.9915 22.3073C83.1534 22.4845 83.2286 22.7095 83.2425 23.0583L83.2509 23.272H82.6247H81.9985L82.0083 23.3357C82.0367 23.5195 82.1224 23.6461 82.2604 23.7084C82.3277 23.7388 82.3633 23.7442 82.4971 23.7442C82.672 23.7442 82.7564 23.7174 82.8804 23.6228L82.9431 23.5749L83.0649 23.6974C83.132 23.7648 83.1865 23.8265 83.1861 23.8346C83.1852 23.8548 83.0613 23.9481 82.9619 24.0033C82.8086 24.0884 82.6933 24.1149 82.4446 24.122L82.2197 24.1285L82.0915 24.0556ZM82.8679 22.8784C82.8493 22.7012 82.7467 22.5307 82.6254 22.4757C82.5496 22.4412 82.3933 22.4386 82.3003 22.4703C82.214 22.4997 82.1323 22.5674 82.0844 22.6492C82.0455 22.7155 81.9946 22.9175 82.0104 22.943C82.0155 22.9513 82.1949 22.9571 82.4477 22.9571H82.8762L82.8679 22.8784ZM64.985 24.0966C64.9479 24.0899 64.8993 24.0774 64.8771 24.0688C64.809 24.0422 64.7206 23.9506 64.6832 23.8679C64.6478 23.7896 64.6476 23.7867 64.6432 23.1333L64.6387 22.4774H64.5345H64.4303V22.2974V22.1175H64.5352H64.6402V21.8326V21.5478H64.8351H65.03V21.8326V22.1175H65.1804H65.3308L65.3266 22.2937L65.3224 22.4699L65.1762 22.4742L65.03 22.4784V23.0681C65.03 23.642 65.0309 23.6588 65.0611 23.6973C65.09 23.7341 65.1005 23.7368 65.2115 23.7368H65.3308L65.3267 23.9205L65.3225 24.1041L65.1876 24.1064C65.1133 24.1076 65.0223 24.1032 64.9851 24.0966L64.985 24.0966ZM75.9301 24.0966C75.893 24.0899 75.8444 24.0774 75.8222 24.0688C75.7541 24.0422 75.6657 23.9506 75.6283 23.8679C75.5929 23.7896 75.5927 23.7867 75.5883 23.1333L75.5838 22.4774H75.4796H75.3754V22.2974V22.1175H75.4803H75.5853V21.8326V21.5478H75.7802H75.9751V21.8326V22.1175H76.1255H76.2759L76.2717 22.2937L76.2675 22.4699L76.1213 22.4742L75.9751 22.4784V23.0681C75.9751 23.642 75.976 23.6588 76.0062 23.6973C76.0351 23.7341 76.0455 23.7368 76.1566 23.7368H76.2759L76.2717 23.9205L76.2676 24.1041L76.1326 24.1064C76.0584 24.1076 75.9673 24.1032 75.9302 24.0966L75.9301 24.0966ZM54.1299 22.711V21.3229H54.5706C54.813 21.3229 55.0801 21.33 55.1643 21.3386C55.6254 21.3859 55.9144 21.6115 56.0214 22.0079C56.0495 22.1118 56.0539 22.178 56.0602 22.5945C56.071 23.2956 56.0412 23.4893 55.8887 23.7126C55.7774 23.8755 55.5961 23.9944 55.3593 24.0596C55.2759 24.0827 55.1805 24.0874 54.6959 24.0928L54.1299 24.0991V22.711ZM55.2319 23.7014C55.4122 23.6532 55.5551 23.5339 55.617 23.3798C55.65 23.2976 55.6515 23.2754 55.6563 22.7697C55.6628 22.0839 55.6485 22.0117 55.4732 21.8515C55.3353 21.7255 55.2685 21.7091 54.8608 21.7014L54.5197 21.6949V22.7083V23.7218L54.8383 23.7216C55.0561 23.7215 55.1806 23.7151 55.2319 23.7014V23.7014ZM62.9159 23.1071V22.1175H63.1108H63.3057V22.2549V22.3923L63.3595 22.3233C63.4222 22.2429 63.5399 22.1582 63.6355 22.1248C63.8288 22.0573 64.0773 22.0986 64.2381 22.2251C64.2611 22.2431 64.2537 22.2581 64.1581 22.3874C64.1002 22.4657 64.0439 22.5424 64.0328 22.5577C64.0136 22.5845 64.0106 22.584 63.9598 22.5452C63.856 22.466 63.6946 22.4419 63.5521 22.4844C63.4644 22.5105 63.3965 22.5686 63.3484 22.6589L63.3132 22.7247L63.3088 23.4107L63.3044 24.0966H63.1102H62.916L62.9159 23.1071ZM67.9237 23.1071V22.1175H68.1186H68.3135V22.2549V22.3923L68.3672 22.3233C68.4287 22.2445 68.5473 22.1583 68.6378 22.1267C68.9224 22.0275 69.2576 22.1467 69.3866 22.393L69.4283 22.4728L69.4867 22.3854C69.6341 22.1646 69.8645 22.0606 70.1183 22.1001C70.3354 22.1339 70.4939 22.2494 70.5846 22.4399C70.6692 22.6175 70.671 22.636 70.6782 23.3957L70.6848 24.0966H70.4896H70.2943L70.2897 23.4332C70.2852 22.777 70.2847 22.7689 70.2506 22.6948C70.1832 22.5486 70.0794 22.4775 69.916 22.4657C69.7791 22.4559 69.6833 22.4893 69.6051 22.5742C69.5006 22.6875 69.498 22.7091 69.498 23.4471V24.0966H69.3036H69.1093L69.105 23.4257C69.1007 22.7618 69.1002 22.7539 69.0661 22.68C68.9933 22.5218 68.9057 22.4701 68.7108 22.47C68.608 22.47 68.5634 22.4766 68.5234 22.4979C68.45 22.5369 68.3912 22.5946 68.3533 22.6648C68.3217 22.7233 68.3209 22.7408 68.3165 23.4107L68.3121 24.0966H68.1179H67.9237L67.9237 23.1071ZM73.3512 23.1071V22.1175H73.5462H73.7411V22.2549V22.3923L73.7948 22.3233C73.9323 22.1468 74.1549 22.0645 74.3933 22.1018C74.6072 22.1354 74.7642 22.2506 74.8521 22.4385C74.9346 22.6147 74.94 22.6746 74.9403 23.4182V24.0966H74.7454H74.5504V23.4471C74.5504 22.7 74.5484 22.6845 74.4381 22.5742C74.3551 22.4911 74.2447 22.4555 74.1017 22.4658C73.9516 22.4765 73.8474 22.5411 73.7807 22.6648C73.7491 22.7233 73.7482 22.7408 73.7439 23.4107L73.7394 24.0966H73.5452H73.351L73.3512 23.1071Z" fill="#85898C"/>
</svg>
