<svg width="109" height="33" viewBox="0 0 109 33" fill="none" xmlns="http://www.w3.org/2000/svg">
<path d="M11.4778 0V2.91705C11.4778 5.19029 11.4556 5.83438 11.3768 5.8352C6.01864 5.89018 5.8695 5.89627 5.21093 6.0927C3.89579 6.48496 2.80752 7.20147 1.88024 8.28527C0.916599 9.41157 0.306405 10.7738 0.0697298 12.3273C-0.0735735 13.2679 0.0160912 15.5059 0.228502 16.2904C0.604465 17.6791 1.15282 18.718 2.00749 19.6606C3.04955 20.8098 4.27899 21.5223 5.72287 21.8138C5.93053 21.8557 6.70089 21.8761 7.43472 21.859C8.94887 21.8237 9.4564 21.7105 10.467 21.183C11.9671 20.4 13.0556 19.1843 13.7832 17.4793C14.4457 15.9271 14.4156 16.3696 14.4483 7.6966L14.4773 0H12.9776H11.4778ZM96.3835 5.64658C93.0173 5.65633 90.1909 6.96154 87.8121 9.60472C86.0715 11.5389 84.9125 14.0201 84.4895 16.7183C84.3459 17.6339 84.335 18.2222 84.335 25.0525V32.4014L90.5009 32.3992C96.6328 32.3969 97.6543 32.3586 98.839 32.087C101.151 31.557 103.317 30.2079 105.092 28.1923C106.454 26.6466 107.606 24.3333 108.064 22.2239C109.398 16.0823 106.853 9.88648 101.835 7.05904C100.021 6.03692 98.4911 5.64047 96.3835 5.64658V5.64658ZM76.0976 5.77174C74.3553 5.73744 72.7866 6.38724 71.2951 7.75462L70.9102 8.10752L70.7292 7.92824C70.6295 7.8296 70.457 7.65831 70.3458 7.54775C69.9718 7.17584 68.9735 6.53397 68.354 6.26697C66.7514 5.57625 64.5114 5.63487 62.901 6.40952C61.0622 7.29397 59.6103 9.05353 58.9276 11.2249L58.6611 12.072L58.6208 16.3802C58.5985 18.7497 58.5918 20.8198 58.6057 20.9802L58.631 21.2719H60.4049H62.1788V17.2968C62.1788 12.9788 62.1998 12.7274 62.6388 11.8321C62.9441 11.2094 63.6918 10.4563 64.3374 10.121C65.4621 9.53683 66.8891 9.71104 67.9272 10.5593C68.4592 10.994 68.8087 11.4756 69.1228 12.2067L69.3351 12.7004L69.3754 16.9636L69.4159 21.2271L71.2151 21.2512L73.0142 21.2753V16.443V11.6106L73.3175 11.2132C73.695 10.7181 73.8556 10.5624 74.2826 10.2775C75.166 9.68819 76.6011 9.62213 77.554 10.1269C78.4466 10.5997 79.0976 11.3732 79.4591 12.3901C79.5853 12.7451 79.606 13.265 79.6433 17.0086L79.6854 21.2271H81.4644H83.2434L83.2379 16.8291C83.2326 12.5865 83.2261 12.4056 83.0546 11.713C82.7133 10.3343 82.1687 9.27142 81.2672 8.22508C80.0326 6.79199 78.69 6.06254 76.8553 5.82824C76.599 5.79552 76.3466 5.77664 76.0976 5.77174ZM36.8216 5.77479C35.3014 5.78655 33.7957 6.32153 32.5454 7.37782C31.8034 8.00463 30.9842 9.07136 30.5759 9.94241C29.6297 11.9612 29.504 14.4783 30.2433 16.6062C31.1097 19.0998 33.3037 21.0618 35.6961 21.4824C35.8296 21.5059 36.4299 21.5141 37.0303 21.5007C38.3863 21.4704 39.1479 21.2677 40.3863 20.6071C41.5845 19.9679 43.1786 18.6188 43.084 18.3239C43.023 18.1337 40.6367 15.8981 40.5539 15.9536C40.5061 15.9856 40.2221 16.1871 39.9227 16.4013C37.7656 17.9444 35.8608 17.9641 34.4379 16.4575C32.306 14.2004 33.4539 10.3003 36.4015 9.78574C37.5242 9.58975 38.9475 10.1574 40.1318 11.2734L40.7667 11.8718L41.8857 10.6321C42.8502 9.56361 42.9932 9.36889 42.9223 9.22184C42.7622 8.88976 41.6914 7.71169 41.1854 7.31089C39.8768 6.2744 38.3419 5.76302 36.8216 5.77479ZM50.6941 5.78782C49.674 5.81532 48.6568 6.06285 47.8325 6.52556C46.5347 7.2541 45.3993 8.51789 44.7966 9.90438C44.2679 11.121 44.1023 11.9574 44.1191 13.3286C44.146 15.5387 44.8181 17.221 46.274 18.7225C47.1879 19.6651 48.1323 20.2284 49.2569 20.5017C49.9896 20.6798 51.7025 20.6775 52.4158 20.4974C54.8086 19.8933 56.7514 17.7895 57.3784 15.1237C57.6054 14.1588 57.5886 12.1256 57.3459 11.1932C56.7869 9.04575 55.4145 7.29154 53.5732 6.37084C52.7372 5.95288 51.7142 5.76033 50.6941 5.78782V5.78782ZM22.9642 5.79978C21.9781 5.78433 21.0102 6.00024 20.1496 6.45842C19.3201 6.90001 18.8916 7.2247 18.2249 7.91694C16.7682 9.42956 16.1095 11.0282 16.0288 13.2463C15.9578 15.1973 16.2987 16.5307 17.2471 18.0108C18.2912 19.6403 19.8565 20.815 21.5243 21.2206C22.2179 21.3892 23.7072 21.3925 24.4165 21.2269C25.5729 20.9569 26.908 20.1663 27.7736 19.239C28.2201 18.7606 29.0264 17.7088 29.0226 17.6097C29.0213 17.5752 28.6744 17.2845 28.2517 16.9636C27.8289 16.6428 27.2082 16.1663 26.8722 15.9047L26.2614 15.429L25.6146 16.1151C25.1799 16.576 24.7913 16.8938 24.4292 17.0842C23.9261 17.3488 23.8313 17.3676 23.0008 17.3676C22.2511 17.3676 22.0499 17.336 21.7201 17.167C21.5049 17.0568 21.3411 16.93 21.3561 16.8852C21.3712 16.8404 22.1294 16.0244 23.0412 15.0716C24.867 13.1636 27.2047 10.7099 28.1152 9.74575C28.4378 9.40419 28.7016 9.09178 28.7016 9.05169C28.7016 8.90315 27.5978 7.68637 27.1268 7.31566C25.8857 6.33895 24.4055 5.82234 22.9642 5.79977V5.79978ZM96.3678 9.37938L96.9994 9.40198C99.1059 9.47738 101.522 10.8201 102.974 12.7226C105.734 16.337 105.728 21.6566 102.961 25.2639C101.869 26.6878 100.176 27.856 98.5344 28.3179C98.0941 28.4417 97.43 28.5689 97.0587 28.6006L96.3835 28.6581V26.73V24.8019L97.1346 24.6657C101.428 23.8868 103.051 18.0942 99.8945 14.8163C99.6055 14.5163 99.1797 14.1492 98.9479 14.0007C98.3814 13.6378 97.3548 13.2836 96.8694 13.2836C96.6519 13.2836 96.4557 13.2507 96.4332 13.2104C96.4107 13.1701 96.3869 12.2915 96.3801 11.2582L96.3678 9.37938ZM11.1544 9.51411L11.1525 12.0946C11.1514 13.5138 11.1136 14.8521 11.0687 15.0686C10.7522 16.5924 9.54384 17.8699 8.0978 18.2094C6.44203 18.5982 4.68319 17.8242 3.83562 16.3339C3.13351 15.0994 3.05666 13.2357 3.65101 11.8534C3.95881 11.1375 4.64146 10.351 5.25576 10.0046C6.05782 9.55229 6.32139 9.51634 8.8296 9.5152L11.1544 9.51411ZM50.7848 9.53388C51.3102 9.52166 51.8301 9.63762 52.2797 9.8833C52.915 10.2304 53.6133 11.0209 53.9138 11.7328C54.1104 12.1986 54.1329 12.3527 54.1329 13.2408C54.1329 14.1724 54.1177 14.264 53.8745 14.8115C53.4051 15.8677 52.5348 16.6265 51.5211 16.8635C49.2407 17.3965 47.1376 15.1688 47.5291 12.635C47.7037 11.5048 48.3849 10.4474 49.2568 9.95371C49.7285 9.6866 50.2594 9.5461 50.7848 9.53388ZM22.9327 9.70642C23.4726 9.70748 24.0116 9.82323 24.0116 9.95436C24.0116 9.99525 23.0494 11.0438 21.8736 12.2845C20.6977 13.5252 19.7191 14.5403 19.6989 14.5403C19.629 14.5403 19.5587 14.2388 19.5116 13.7384C19.4162 12.7261 19.8137 11.6397 20.5864 10.8003C21.2012 10.1324 21.9201 9.76321 22.7027 9.71337C22.7783 9.70856 22.8556 9.70627 22.9327 9.70642V9.70642ZM96.3835 15.054L96.8686 15.1027C97.7621 15.1926 98.7488 15.8588 99.296 16.7416C99.7105 17.4102 99.8812 18.1491 99.8451 19.1177C99.8196 19.8026 99.7709 20.0725 99.5977 20.4894C99.1995 21.4474 98.5041 22.1735 97.6168 22.5576C97.4279 22.6394 97.0732 22.7326 96.8285 22.7645L96.3835 22.8225V18.9383V15.054Z" fill="white"/>
</svg>
