<svg width="65" height="65" viewBox="0 0 65 65" fill="none" xmlns="http://www.w3.org/2000/svg">
<path d="M0.666016 6.83268C0.666016 3.42693 3.42693 0.666016 6.83268 0.666016H58.4993C61.9051 0.666016 64.666 3.42693 64.666 6.83268V58.4993C64.666 61.9051 61.9051 64.666 58.4993 64.666H6.83268C3.42693 64.666 0.666016 61.9051 0.666016 58.4993V6.83268Z" fill="#FAB900"/>
<path d="M43.9515 29.3954L22.7536 16.8633C21.0312 15.8456 18.3936 16.8332 18.3936 19.3504V44.4086C18.3936 46.6669 20.8446 48.0279 22.7536 46.8957L43.9515 34.3697C45.8424 33.2556 45.8485 30.5095 43.9515 29.3954Z" fill="white"/>
<path d="M6.83268 1.89935H58.4993V-0.567318H6.83268V1.89935ZM63.4327 6.83268V58.4993H65.8993V6.83268H63.4327ZM58.4993 63.4327H6.83268V65.8993H58.4993V63.4327ZM1.89935 58.4993V6.83268H-0.567318V58.4993H1.89935ZM6.83268 63.4327C4.10808 63.4327 1.89935 61.224 1.89935 58.4993H-0.567318C-0.567318 62.5863 2.74578 65.8993 6.83268 65.8993V63.4327ZM63.4327 58.4993C63.4327 61.224 61.224 63.4327 58.4993 63.4327V65.8993C62.5863 65.8993 65.8993 62.5863 65.8993 58.4993H63.4327ZM58.4993 1.89935C61.224 1.89935 63.4327 4.10808 63.4327 6.83268H65.8993C65.8993 2.74578 62.5863 -0.567318 58.4993 -0.567318V1.89935ZM6.83268 -0.567318C2.74578 -0.567318 -0.567318 2.74578 -0.567318 6.83268H1.89935C1.89935 4.10808 4.10808 1.89935 6.83268 1.89935V-0.567318Z" fill="#FAB900"/>
</svg>
