<svg width="64" height="64" viewBox="0 0 64 64" fill="none" xmlns="http://www.w3.org/2000/svg">
<path d="M43.2857 28.7294L22.0878 16.1973C20.3655 15.1795 17.7278 16.1672 17.7278 18.6844V43.7425C17.7278 46.0008 20.1788 47.3618 22.0878 46.2297L43.2857 33.7036C45.1767 32.5895 45.1827 29.8434 43.2857 28.7294Z" fill="#FAB900"/>
<path d="M6.16667 1.23333H57.8333V-1.23333H6.16667V1.23333ZM62.7667 6.16667V57.8333H65.2333V6.16667H62.7667ZM57.8333 62.7667H6.16667V65.2333H57.8333V62.7667ZM1.23333 57.8333V6.16667H-1.23333V57.8333H1.23333ZM6.16667 62.7667C3.44206 62.7667 1.23333 60.5579 1.23333 57.8333H-1.23333C-1.23333 61.9202 2.07976 65.2333 6.16667 65.2333V62.7667ZM62.7667 57.8333C62.7667 60.5579 60.5579 62.7667 57.8333 62.7667V65.2333C61.9202 65.2333 65.2333 61.9202 65.2333 57.8333H62.7667ZM57.8333 1.23333C60.5579 1.23333 62.7667 3.44206 62.7667 6.16667H65.2333C65.2333 2.07976 61.9202 -1.23333 57.8333 -1.23333V1.23333ZM6.16667 -1.23333C2.07976 -1.23333 -1.23333 2.07976 -1.23333 6.16667H1.23333C1.23333 3.44206 3.44206 1.23333 6.16667 1.23333V-1.23333Z" fill="#FAB900"/>
</svg>
